<?xml version="1.0" standalone="no"?>
<!DOCTYPE svg PUBLIC "-//W3C//DTD SVG 20010904//EN"
 "http://www.w3.org/TR/2001/REC-SVG-20010904/DTD/svg10.dtd">
<svg version="1.0" xmlns="http://www.w3.org/2000/svg"
 width="2152.000000pt" height="2152.000000pt" viewBox="0 0 2152.000000 2152.000000"
 preserveAspectRatio="xMidYMid meet">

<g transform="translate(0.000000,2152.000000) scale(0.100000,-0.100000)"
fill="#000000" stroke="none">
<path d="M10430 18954 c-778 -43 -1395 -148 -2059 -349 -1714 -520 -3224
-1604 -4275 -3069 -806 -1122 -1310 -2415 -1476 -3786 -43 -358 -54 -559 -54
-985 0 -485 18 -757 80 -1184 172 -1200 614 -2353 1287 -3360 685 -1026 1569
-1869 2627 -2503 974 -585 2071 -960 3210 -1098 358 -43 559 -54 985 -54 485
0 757 18 1184 80 1318 189 2570 700 3656 1492 1304 951 2323 2304 2870 3812
255 704 405 1400 472 2190 21 252 24 943 5 1180 -55 674 -159 1243 -337 1829
-520 1714 -1604 3224 -3069 4275 -1224 879 -2614 1385 -4146 1511 -173 15
-814 27 -960 19z m980 -98 c455 -39 841 -101 1259 -202 1285 -310 2479 -934
3481 -1819 183 -162 539 -519 694 -695 1098 -1253 1771 -2744 1975 -4375 44
-351 55 -552 56 -995 0 -433 -7 -573 -46 -925 -182 -1649 -879 -3213 -1994
-4475 -160 -182 -517 -537 -695 -694 -1250 -1096 -2744 -1771 -4375 -1975
-351 -44 -552 -55 -995 -56 -433 0 -573 7 -925 46 -1649 182 -3214 880 -4475
1994 -183 162 -539 519 -694 695 -966 1102 -1601 2385 -1881 3795 -110 555
-150 975 -150 1585 0 421 8 569 46 915 182 1649 880 3214 1994 4475 162 183
519 539 695 694 1253 1098 2743 1770 4375 1975 142 18 451 45 635 55 158 9
846 -4 1020 -18z"/>
<path d="M8485 17033 c-611 -50 -1113 -242 -1600 -612 -149 -113 -412 -380
-532 -541 -518 -693 -703 -1525 -527 -2373 15 -70 25 -129 23 -131 -2 -1 -56
-22 -119 -45 -256 -95 -540 -256 -780 -441 -145 -112 -399 -372 -517 -530
-240 -321 -405 -660 -498 -1025 -179 -700 -99 -1424 226 -2063 139 -272 306
-499 539 -733 306 -306 662 -537 1040 -675 58 -21 107 -39 109 -40 1 -2 -11
-72 -27 -156 -17 -84 -37 -200 -44 -258 -17 -136 -16 -525 0 -660 68 -546 261
-1018 601 -1465 113 -149 380 -412 541 -532 750 -560 1676 -732 2568 -477 431
122 865 369 1181 670 l91 86 97 -92 c195 -185 474 -374 728 -496 816 -389
1773 -376 2583 37 272 139 499 306 733 539 708 707 998 1683 793 2673 -15 70
-25 129 -23 131 2 1 56 22 119 45 256 95 540 256 780 441 145 112 399 372 517
530 240 321 405 660 498 1025 179 700 99 1424 -226 2063 -139 272 -306 499
-539 733 -306 306 -662 537 -1040 675 -58 21 -107 39 -109 40 -1 2 11 72 27
156 17 84 37 200 44 258 17 136 16 525 0 660 -68 546 -261 1018 -601 1465
-113 149 -380 412 -541 532 -750 560 -1676 732 -2568 477 -431 -122 -865 -369
-1181 -670 l-91 -86 -97 92 c-525 497 -1271 787 -2003 778 -74 -1 -153 -3
-175 -5z m550 -93 c226 -31 479 -96 685 -177 330 -130 717 -379 934 -601 l48
-50 -78 -94 c-44 -51 -114 -140 -155 -198 -474 -654 -651 -1485 -488 -2288 11
-57 17 -108 12 -111 -4 -4 -44 -18 -88 -30 -351 -100 -763 -330 -1072 -598
l-73 -64 -77 67 c-725 632 -1717 870 -2638 634 -76 -20 -112 -25 -117 -17 -8
14 -54 255 -70 367 -16 115 -16 560 0 680 118 882 601 1630 1347 2087 123 76
356 189 488 238 216 79 488 142 717 164 116 12 515 6 625 -9z m4160 0 c1141
-154 2065 -949 2379 -2048 43 -149 82 -370 97 -542 13 -143 7 -448 -11 -580
-12 -93 -61 -345 -69 -358 -3 -5 -52 2 -116 18 -419 106 -878 116 -1301 30
-487 -100 -959 -334 -1341 -667 l-73 -64 -77 67 c-313 273 -703 489 -1090 603
-40 12 -73 25 -73 29 0 4 11 63 24 132 14 69 31 172 38 230 17 136 17 524 0
660 -74 595 -302 1114 -690 1573 l-75 89 49 50 c180 185 463 381 744 517 305
147 626 237 960 270 116 12 515 6 625 -9z m-2345 -987 c456 -544 690 -1216
667 -1918 -3 -99 -11 -218 -17 -265 -11 -84 -55 -319 -62 -325 -2 -2 -46 5
-97 16 -204 42 -328 53 -581 53 -253 0 -377 -11 -581 -53 -51 -11 -96 -18 -98
-15 -7 7 -50 235 -63 339 -17 128 -16 549 0 675 60 455 214 867 464 1240 93
140 260 350 278 350 5 0 45 -44 90 -97z m-3735 -2533 c576 -78 1119 -326 1545
-707 l44 -40 -88 -94 c-182 -193 -372 -472 -492 -724 -61 -129 -142 -339 -165
-428 -6 -26 -17 -47 -23 -47 -23 0 -207 61 -318 106 -768 308 -1363 941 -1634
1737 l-33 98 27 10 c76 29 355 82 512 98 116 12 515 6 625 -9z m3895 10 c108
-10 383 -55 401 -65 10 -7 -32 -141 -88 -285 -67 -170 -175 -376 -285 -540
-93 -140 -260 -350 -278 -350 -12 0 -159 177 -229 275 -122 171 -249 402 -323
583 -48 120 -108 306 -100 314 11 11 275 57 382 67 136 12 386 13 520 1z
m4105 -10 c98 -13 307 -55 386 -77 45 -12 59 -21 59 -35 0 -40 -95 -282 -175
-443 -344 -698 -947 -1217 -1688 -1454 -53 -17 -103 -31 -111 -31 -8 0 -22 31
-35 77 -111 383 -369 828 -651 1126 -45 47 -79 91 -75 96 11 18 198 171 280
230 262 187 572 336 883 425 132 38 360 81 502 95 116 12 515 6 625 -9z
m-5066 -157 c103 -352 312 -730 579 -1046 l75 -89 -49 -50 c-224 -230 -602
-473 -939 -603 -167 -65 -151 -65 -170 2 -31 107 -118 317 -186 451 -115 226
-294 480 -459 655 -45 47 -79 91 -75 96 11 18 198 172 280 230 171 122 402
249 583 323 97 39 302 107 323 108 11 0 22 -22 38 -77z m1563 47 c372 -116
756 -335 1048 -597 l44 -40 -88 -94 c-182 -193 -372 -472 -492 -724 -56 -117
-141 -336 -159 -408 -9 -32 -1 -34 -165 30 -328 128 -717 379 -934 601 l-48
50 78 94 c173 203 312 418 420 643 61 129 142 338 165 428 6 26 17 47 23 47 7
0 55 -14 108 -30z m-5717 -67 c31 -107 118 -317 186 -451 139 -272 306 -499
539 -733 352 -353 766 -602 1228 -738 39 -12 72 -25 72 -29 0 -4 -11 -63 -24
-132 -40 -205 -51 -322 -51 -560 0 -238 11 -354 51 -564 14 -71 22 -132 17
-136 -4 -4 -44 -17 -88 -29 -215 -61 -518 -202 -723 -337 -198 -130 -310 -222
-483 -394 -248 -247 -431 -504 -575 -805 -56 -117 -141 -336 -159 -408 -9 -32
-1 -34 -165 30 -63 25 -177 77 -253 116 -979 499 -1579 1516 -1544 2612 3 99
11 218 17 265 124 960 714 1782 1580 2204 114 56 329 145 352 146 4 0 14 -26
23 -57z m9905 0 c63 -25 177 -77 253 -116 979 -499 1579 -1516 1544 -2612 -7
-203 -17 -295 -53 -475 -154 -770 -626 -1446 -1300 -1862 -123 -76 -314 -171
-449 -223 -167 -65 -151 -65 -170 2 -31 107 -118 317 -186 451 -139 272 -306
499 -539 733 -352 353 -766 602 -1227 738 -40 12 -73 25 -73 29 0 4 11 63 24
132 40 205 51 322 51 560 0 238 -11 354 -51 564 -14 71 -22 132 -17 136 4 4
44 17 88 29 215 61 518 202 723 337 198 130 310 222 483 394 248 247 431 504
575 805 56 117 141 336 159 408 9 32 1 34 165 -30z m-6964 -706 c273 -287 485
-643 620 -1040 l33 -98 -27 -10 c-83 -32 -361 -83 -532 -99 -146 -13 -353 -13
-500 0 -108 10 -383 55 -401 65 -4 3 4 42 18 88 95 311 285 669 491 926 81
102 210 241 222 241 4 0 38 -33 76 -73z m4000 0 c278 -293 491 -654 625 -1057
21 -63 35 -118 31 -122 -13 -13 -277 -56 -417 -69 -152 -13 -443 -8 -585 11
-100 13 -308 54 -391 77 -45 12 -59 21 -59 35 0 40 95 282 175 443 92 187 206
369 323 514 81 102 210 241 222 241 4 0 38 -33 76 -73z m-1977 -558 c256 -244
630 -474 961 -595 58 -21 107 -39 109 -40 1 -2 -11 -72 -27 -156 -46 -230 -57
-341 -57 -588 0 -247 11 -358 57 -588 16 -84 28 -154 27 -156 -2 -1 -56 -22
-119 -45 -337 -126 -704 -354 -959 -597 l-91 -86 -97 92 c-258 245 -631 475
-963 596 -58 21 -107 39 -109 40 -1 2 11 72 27 156 46 230 57 341 57 588 0
247 -11 358 -57 588 -16 84 -28 154 -27 156 2 1 56 22 119 45 337 126 709 357
957 595 48 47 90 85 92 86 1 0 46 -41 100 -91z m-1340 -696 c24 -89 60 -319
72 -448 12 -148 7 -450 -11 -585 -12 -93 -61 -345 -69 -358 -3 -5 -52 2 -116
18 -417 106 -879 116 -1296 31 -52 -11 -96 -18 -98 -15 -7 7 -50 235 -63 339
-17 130 -17 540 0 671 12 95 57 332 64 339 2 2 45 -5 97 -16 417 -85 897 -74
1291 31 58 15 108 28 112 29 4 0 12 -16 17 -36z m2626 1 c418 -100 865 -109
1276 -25 52 11 96 18 98 15 7 -7 50 -235 63 -339 17 -130 17 -540 0 -671 -12
-95 -57 -332 -64 -339 -2 -2 -45 5 -97 16 -417 85 -886 74 -1296 -31 -76 -20
-112 -25 -117 -17 -8 14 -54 255 -70 367 -16 115 -16 560 0 680 12 89 56 322
68 363 4 12 11 16 22 12 10 -4 62 -17 117 -31z m-3110 -1384 c98 -13 307 -55
386 -77 45 -12 59 -21 59 -35 0 -40 -95 -282 -175 -443 -127 -258 -333 -554
-499 -715 l-46 -44 -46 44 c-213 207 -459 584 -586 898 -48 120 -108 306 -100
314 10 10 272 56 382 67 116 12 515 6 625 -9z m4055 10 c108 -10 383 -55 401
-65 10 -7 -32 -141 -88 -285 -128 -326 -380 -720 -597 -930 l-46 -44 -46 44
c-63 62 -194 219 -263 315 -165 232 -293 483 -387 758 l-33 98 27 10 c77 30
360 83 512 97 136 13 386 14 520 2z m-5121 -167 c111 -383 369 -828 651 -1126
45 -47 79 -91 75 -96 -3 -6 -49 -47 -103 -92 -543 -455 -1215 -689 -1917 -666
-203 7 -295 17 -474 53 -191 38 -241 54 -241 76 0 40 95 282 175 443 341 692
925 1199 1665 1446 63 21 122 39 131 39 11 0 22 -22 38 -77z m5723 47 c145
-45 308 -113 455 -190 658 -341 1147 -913 1389 -1623 l33 -98 -24 -9 c-90 -34
-365 -85 -550 -101 -152 -13 -443 -8 -585 11 -573 74 -1122 325 -1550 707
l-44 40 88 94 c182 193 372 472 492 724 61 129 142 339 165 428 6 26 17 47 23
47 7 0 55 -14 108 -30z m-3972 -67 c328 -128 717 -379 934 -601 l48 -50 -78
-94 c-173 -203 -312 -418 -420 -643 -61 -129 -142 -338 -165 -428 -6 -26 -17
-47 -23 -47 -7 0 -55 14 -108 30 -372 116 -756 335 -1048 597 l-44 40 88 94
c182 193 372 472 492 724 56 117 141 336 159 408 9 32 1 34 165 -30z m2255 0
c31 -107 118 -317 186 -451 115 -226 294 -480 459 -655 45 -47 79 -91 75 -96
-11 -18 -198 -172 -280 -230 -241 -172 -518 -311 -798 -400 -53 -17 -103 -31
-111 -31 -8 0 -22 31 -35 77 -103 352 -312 730 -579 1046 l-75 89 49 50 c177
181 459 378 734 512 114 56 329 145 352 146 4 0 14 -26 23 -57z m-1125 -810
c241 -288 413 -596 531 -953 21 -63 35 -118 31 -122 -4 -4 -70 -18 -147 -32
-341 -62 -669 -62 -1009 0 -76 13 -142 27 -147 29 -10 7 32 141 88 285 67 170
175 376 285 540 93 140 260 350 278 350 5 0 45 -44 90 -97z m-2012 -510 c312
-272 703 -488 1090 -602 39 -12 72 -25 72 -29 0 -4 -11 -63 -24 -132 -14 -69
-31 -172 -38 -230 -17 -136 -17 -524 0 -660 74 -595 302 -1114 690 -1573 l75
-89 -49 -50 c-27 -27 -92 -86 -144 -130 -537 -452 -1214 -688 -1915 -665 -99
3 -218 11 -265 17 -1137 147 -2069 948 -2384 2048 -43 149 -82 370 -97 542
-13 143 -7 448 11 580 12 93 61 345 69 358 3 5 52 -2 116 -18 794 -200 1645
-56 2320 394 136 91 252 180 345 264 25 23 46 41 48 42 2 0 38 -30 80 -67z
m4000 0 c724 -631 1717 -869 2637 -633 76 20 112 25 117 17 8 -14 54 -255 70
-367 16 -115 16 -560 0 -680 -46 -344 -142 -654 -295 -953 -499 -979 -1516
-1579 -2612 -1544 -268 9 -477 41 -720 113 -424 125 -893 399 -1169 682 l-48
50 78 94 c44 51 114 140 155 198 474 654 651 1485 488 2288 -11 57 -17 108
-12 111 4 4 44 18 88 30 354 100 798 350 1085 610 30 28 56 50 58 51 2 0 38
-30 80 -67z m-2618 -672 c195 -36 310 -46 550 -45 242 0 373 13 571 53 51 11
96 18 98 15 7 -7 50 -235 63 -339 17 -128 16 -549 0 -675 -60 -455 -214 -867
-464 -1240 -93 -140 -260 -350 -278 -350 -12 0 -159 177 -229 275 -136 190
-278 458 -356 668 -187 508 -225 1081 -109 1600 13 55 19 67 32 63 10 -3 64
-14 122 -25z"/>
</g>
</svg>
